<svg width="84" height="71" viewBox="0 0 84 71" fill="none" xmlns="http://www.w3.org/2000/svg">
<path d="M83.7527 51.379C83.7527 55.5693 82.8046 58.9523 80.9084 61.528C79.0121 64.0652 76.5355 66.0066 73.4783 67.3521C70.4211 68.6591 67.1124 69.5433 63.5521 70.0047C60.0306 70.466 56.6445 70.6966 53.3938 70.6966C48.2889 70.6966 39.4504 70.6867 30.4557 70.6867C30.4558 70.3846 51.2473 62.2247 51.2473 62.2247L53.3938 42.5564L43.3405 33.3034L45.093 29.7978L51.2473 18.9139L47.1475 6.13483L40.705 2.33708C40.705 2.33708 30.4556 0.74918 30.4557 2.79861e-05C33.3317 -2.17225e-05 46.8153 9.93412e-06 50.4914 9.93412e-06C53.7421 9.93412e-06 57.1089 0.230668 60.5917 0.691984C64.1133 1.1533 67.3833 2.03749 70.4018 3.34455C73.4589 4.61317 75.9163 6.49687 77.7738 8.99566C79.67 11.4945 80.6181 14.8005 80.6181 18.9139C80.6181 22.8736 79.3604 26.1989 76.845 28.8899C74.3296 31.5425 71.2725 33.4454 67.6735 34.5987C72.3947 35.406 76.2452 37.1359 79.225 39.7885C82.2435 42.441 83.7527 46.3046 83.7527 51.379ZM69.473 18.395C69.473 14.7044 68.4668 11.7828 66.4545 9.62997C64.4809 7.43872 61.9655 5.88178 58.9083 4.95915C55.8899 3.99808 52.8133 3.51754 49.6788 3.51754C48.0535 3.51754 48.7728 3.36377 47.1475 3.51754L57.3969 15.7753C57.3969 15.7753 43.429 32.2729 45.093 32.3498C46.7958 32.3882 48.4598 32.4074 50.0851 32.4074C53.3745 32.4074 56.4897 32.0422 59.4308 31.3118C62.3718 30.5429 64.7712 29.1398 66.6287 27.1023C68.5249 25.0648 69.473 22.1624 69.473 18.395ZM71.6208 52.1287C71.6208 48.0537 70.4792 44.8629 68.196 42.5564C65.9515 40.2113 63.1265 38.5583 59.721 37.5972C56.3156 36.5977 52.8714 36.098 49.3885 36.098C47.918 36.098 52.2167 37.645 53.8828 38.8539C55.4578 39.9967 57.6898 42.0674 57.6898 42.0674L59.721 49.0787L50.0851 66.3146C50.0851 66.3146 50.1432 67.0061 52.2329 67.0061C55.3674 67.0061 58.4246 66.5256 61.4044 65.5645C64.3842 64.6034 66.8222 63.0273 68.7184 60.836C70.6533 58.6448 71.6208 55.7423 71.6208 52.1287Z" fill="url(#paint0_linear_1_6)"/>
<path d="M64.4252 51.379C64.4252 55.2233 63.5368 58.4141 61.7601 60.9513C60.022 63.4501 57.7046 65.4107 54.8077 66.8331C51.9495 68.2555 48.8017 69.255 45.3641 69.8317C41.9652 70.4083 38.6242 70.6966 35.3411 70.6966H0V67.9864C2.89682 67.9864 5.05977 67.6981 6.48887 67.1214C7.95658 66.5448 8.92219 65.5261 9.38568 64.0652C9.84917 62.5659 10.0809 60.4516 10.0809 57.7221V12.9745C10.0809 10.2066 9.84917 8.07302 9.38568 6.57375C8.96081 5.07447 8.03383 4.03651 6.60474 3.45987C5.17564 2.88322 2.97406 2.5949 0 2.5949V0H33.6031C38.2766 0 42.7184 0.595866 46.9284 1.7876C51.1384 2.94089 54.5567 4.84381 57.1831 7.49638C59.8482 10.1489 61.1807 13.6857 61.1807 18.1066C61.1807 21.9509 60.022 25.2378 57.7046 27.9673C55.4257 30.6967 51.853 32.7342 46.9863 34.0797C52.471 35.1177 56.7389 37.0398 59.7903 39.8461C62.8802 42.614 64.4252 46.4583 64.4252 51.379ZM47.9133 18.222C47.9133 14.9159 47.1022 12.2633 45.48 10.2643C43.8578 8.2268 41.6755 6.74674 38.9332 5.82411C36.1909 4.90148 33.1589 4.44016 29.8372 4.44016C27.0949 4.44016 24.5843 4.70926 22.3055 5.24747V31.4271C23.5028 31.6578 24.7581 31.8116 26.0713 31.8884C27.4232 31.9269 28.7557 31.9461 30.0689 31.9461C33.3906 31.9461 36.384 31.5232 39.0491 30.6775C41.7528 29.7933 43.8964 28.3517 45.48 26.3527C47.1022 24.3152 47.9133 21.605 47.9133 18.222ZM50.1728 52.071C50.1728 48.1498 49.1879 45.0552 47.2181 42.787C45.2869 40.4805 42.7377 38.8274 39.5705 37.8279C36.4419 36.7899 33.1203 36.271 29.6054 36.271C28.3695 36.271 27.1142 36.2902 25.8396 36.3286C24.6036 36.3671 23.4256 36.4632 22.3055 36.6169V63.1426C23.6573 64.2959 25.1444 65.1032 26.7666 65.5645C28.4274 65.9874 30.2814 66.1988 32.3285 66.1988C35.148 66.1988 37.929 65.7759 40.6713 64.9302C43.4136 64.046 45.6731 62.5852 47.4498 60.5477C49.2652 58.4718 50.1728 55.6462 50.1728 52.071Z" fill="white"/>
<defs>
<linearGradient id="paint0_linear_1_6" x1="72.6392" y1="3.80957" x2="35.6256" y2="70.6854" gradientUnits="userSpaceOnUse">
<stop stop-color="#F0BB2B"/>
<stop offset="1" stop-color="#C67E15"/>
</linearGradient>
</defs>
</svg>
