<svg width="270" height="104" viewBox="0 0 270 104" fill="none" xmlns="http://www.w3.org/2000/svg">
<g clip-path="url(#clip0_1_5)">
<path d="M83.7527 51.379C83.7527 55.5693 82.8046 58.9523 80.9084 61.528C79.0121 64.0652 76.5355 66.0066 73.4783 67.3521C70.4211 68.6591 67.1124 69.5433 63.5521 70.0047C60.0306 70.466 56.6445 70.6966 53.3938 70.6966C48.2889 70.6966 39.4504 70.6867 30.4557 70.6867C30.4558 70.3846 51.2473 62.2247 51.2473 62.2247L53.3938 42.5564L43.3405 33.3034L45.093 29.7978L51.2473 18.9139L47.1475 6.13483L40.705 2.33708C40.705 2.33708 30.4556 0.74918 30.4557 2.79861e-05C33.3317 -2.17225e-05 46.8153 9.93412e-06 50.4914 9.93412e-06C53.7421 9.93412e-06 57.1089 0.230668 60.5917 0.691984C64.1133 1.1533 67.3833 2.03749 70.4018 3.34455C73.4589 4.61317 75.9163 6.49687 77.7738 8.99566C79.67 11.4945 80.6181 14.8005 80.6181 18.9139C80.6181 22.8736 79.3604 26.1989 76.845 28.8899C74.3296 31.5425 71.2725 33.4454 67.6735 34.5987C72.3947 35.406 76.2452 37.1359 79.225 39.7885C82.2435 42.441 83.7527 46.3046 83.7527 51.379ZM69.473 18.395C69.473 14.7044 68.4668 11.7828 66.4545 9.62997C64.4809 7.43872 61.9655 5.88178 58.9083 4.95915C55.8899 3.99808 52.8133 3.51754 49.6788 3.51754C48.0535 3.51754 48.7728 3.36377 47.1475 3.51754L57.3969 15.7753C57.3969 15.7753 43.429 32.2729 45.093 32.3498C46.7958 32.3882 48.4598 32.4074 50.0851 32.4074C53.3745 32.4074 56.4897 32.0422 59.4308 31.3118C62.3718 30.5429 64.7712 29.1398 66.6287 27.1023C68.5249 25.0648 69.473 22.1624 69.473 18.395ZM71.6208 52.1287C71.6208 48.0537 70.4792 44.8629 68.196 42.5564C65.9515 40.2113 63.1265 38.5583 59.721 37.5972C56.3156 36.5977 52.8714 36.098 49.3885 36.098C47.918 36.098 52.2167 37.645 53.8828 38.8539C55.4578 39.9967 57.6898 42.0674 57.6898 42.0674L59.721 49.0787L50.0851 66.3146C50.0851 66.3146 50.1432 67.0061 52.2329 67.0061C55.3674 67.0061 58.4246 66.5256 61.4044 65.5645C64.3842 64.6034 66.8222 63.0273 68.7184 60.836C70.6533 58.6448 71.6208 55.7423 71.6208 52.1287Z" fill="url(#paint0_linear_1_5)"/>
<path d="M64.4252 51.379C64.4252 55.2233 63.5368 58.4141 61.7601 60.9513C60.022 63.4501 57.7046 65.4107 54.8077 66.8331C51.9495 68.2555 48.8017 69.255 45.3641 69.8317C41.9652 70.4083 38.6242 70.6966 35.3411 70.6966H0V67.9864C2.89682 67.9864 5.05977 67.6981 6.48887 67.1214C7.95658 66.5448 8.92219 65.5261 9.38568 64.0652C9.84917 62.5659 10.0809 60.4516 10.0809 57.7221V12.9745C10.0809 10.2066 9.84917 8.07302 9.38568 6.57375C8.96081 5.07447 8.03383 4.03651 6.60474 3.45987C5.17564 2.88322 2.97406 2.5949 0 2.5949V0H33.6031C38.2766 0 42.7184 0.595866 46.9284 1.7876C51.1384 2.94089 54.5567 4.84381 57.1831 7.49638C59.8482 10.1489 61.1807 13.6857 61.1807 18.1066C61.1807 21.9509 60.022 25.2378 57.7046 27.9673C55.4257 30.6967 51.853 32.7342 46.9863 34.0797C52.471 35.1177 56.7389 37.0398 59.7903 39.8461C62.8802 42.614 64.4252 46.4583 64.4252 51.379ZM47.9133 18.222C47.9133 14.9159 47.1022 12.2633 45.48 10.2643C43.8578 8.2268 41.6755 6.74674 38.9332 5.82411C36.1909 4.90148 33.1589 4.44016 29.8372 4.44016C27.0949 4.44016 24.5843 4.70926 22.3055 5.24747V31.4271C23.5028 31.6578 24.7581 31.8116 26.0713 31.8884C27.4232 31.9269 28.7557 31.9461 30.0689 31.9461C33.3906 31.9461 36.384 31.5232 39.0491 30.6775C41.7528 29.7933 43.8964 28.3517 45.48 26.3527C47.1022 24.3152 47.9133 21.605 47.9133 18.222ZM50.1728 52.071C50.1728 48.1498 49.1879 45.0552 47.2181 42.787C45.2869 40.4805 42.7377 38.8274 39.5705 37.8279C36.4419 36.7899 33.1203 36.271 29.6054 36.271C28.3695 36.271 27.1142 36.2902 25.8396 36.3286C24.6036 36.3671 23.4256 36.4632 22.3055 36.6169V63.1426C23.6573 64.2959 25.1444 65.1032 26.7666 65.5645C28.4274 65.9874 30.2814 66.1988 32.3285 66.1988C35.148 66.1988 37.929 65.7759 40.6713 64.9302C43.4136 64.046 45.6731 62.5852 47.4498 60.5477C49.2652 58.4718 50.1728 55.6462 50.1728 52.071Z" fill="white"/>
<path d="M127.089 31.2288C127.089 32.6056 126.774 33.7484 126.145 34.6571C125.528 35.552 124.707 36.2542 123.68 36.7637C122.667 37.2731 121.551 37.6311 120.333 37.8376C119.128 38.0441 117.943 38.1474 116.78 38.1474H104.252V37.1767C105.279 37.1767 106.045 37.0734 106.552 36.8669C107.072 36.6604 107.415 36.2955 107.579 35.7723C107.743 35.2354 107.825 34.4781 107.825 33.5005V17.4741C107.825 16.4828 107.743 15.7186 107.579 15.1817C107.428 14.6447 107.1 14.273 106.593 14.0664C106.086 13.8599 105.306 13.7566 104.252 13.7566V12.8273H116.163C117.82 12.8273 119.395 13.0407 120.887 13.4675C122.379 13.8806 123.591 14.5621 124.522 15.5121C125.467 16.4621 125.939 17.7288 125.939 19.3122C125.939 20.689 125.528 21.8662 124.707 22.8438C123.899 23.8213 122.633 24.5511 120.908 25.033C122.852 25.4047 124.365 26.0931 125.446 27.0982C126.542 28.0896 127.089 29.4664 127.089 31.2288ZM121.236 19.3535C121.236 18.1694 120.949 17.2194 120.374 16.5034C119.799 15.7737 119.025 15.2436 118.053 14.9132C117.081 14.5827 116.006 14.4175 114.829 14.4175C113.856 14.4175 112.966 14.5139 112.159 14.7067V24.0829C112.583 24.1656 113.028 24.2206 113.494 24.2482C113.973 24.2619 114.445 24.2688 114.911 24.2688C116.088 24.2688 117.149 24.1174 118.094 23.8145C119.052 23.4978 119.812 22.9815 120.374 22.2655C120.949 21.5358 121.236 20.5651 121.236 19.3535ZM122.037 31.4766C122.037 30.0722 121.688 28.9638 120.99 28.1515C120.305 27.3254 119.402 26.7334 118.279 26.3754C117.17 26.0036 115.992 25.8178 114.746 25.8178C114.308 25.8178 113.863 25.8247 113.411 25.8384C112.973 25.8522 112.556 25.8866 112.159 25.9417V35.4419C112.638 35.8549 113.165 36.1441 113.74 36.3093C114.329 36.4607 114.986 36.5365 115.712 36.5365C116.711 36.5365 117.697 36.385 118.669 36.0821C119.641 35.7654 120.442 35.2422 121.072 34.5125C121.715 33.769 122.037 32.757 122.037 31.4766Z" fill="white"/>
<path d="M152.903 31.4766L150.562 38.1474H131.031V37.1767C132.071 37.1767 132.845 37.0734 133.352 36.8669C133.858 36.6604 134.194 36.2818 134.358 35.731C134.522 35.1803 134.604 34.3886 134.604 33.356V17.5361C134.604 16.4759 134.529 15.6773 134.378 15.1404C134.228 14.6034 133.899 14.2385 133.393 14.0458C132.9 13.853 132.112 13.7566 131.031 13.7566V12.8273H150.644L150.931 18.7752H150.007C149.72 17.6875 149.439 16.8339 149.165 16.2143C148.891 15.581 148.453 15.1335 147.851 14.8719C147.262 14.5965 146.345 14.4588 145.099 14.4588H138.897V24.1862H143.333C144.36 24.1862 145.133 24.0692 145.653 23.8351C146.187 23.5873 146.564 23.1811 146.783 22.6166C147.016 22.0383 147.201 21.2604 147.337 20.2829H148.282V29.7005H147.337C147.201 28.7091 147.023 27.9381 146.803 27.3874C146.584 26.8229 146.215 26.4305 145.694 26.2102C145.174 25.9761 144.387 25.8591 143.333 25.8591H138.897V33.6038C138.897 34.5814 138.992 35.318 139.184 35.8136C139.376 36.2955 139.985 36.5365 141.012 36.5365H144.503C145.968 36.5365 147.112 36.3644 147.933 36.0202C148.755 35.6759 149.446 35.1321 150.007 34.3886C150.569 33.6451 151.185 32.6744 151.856 31.4766H152.903Z" fill="white"/>
<path d="M175.02 31.4353C175.02 32.9223 174.637 34.2165 173.87 35.318C173.117 36.4057 172.111 37.2524 170.851 37.8582C169.605 38.4503 168.256 38.7463 166.805 38.7463C165.792 38.7463 164.882 38.6224 164.074 38.3746C163.28 38.1267 162.574 37.8789 161.958 37.6311C161.342 37.3832 160.808 37.2593 160.356 37.2593C159.918 37.2593 159.597 37.4177 159.391 37.7343C159.2 38.0372 159.049 38.3746 158.939 38.7463H158.036V29.7211H158.98C159.131 31.0704 159.508 32.3096 160.11 33.4386C160.726 34.5676 161.568 35.4763 162.636 36.1647C163.718 36.8394 165.025 37.1767 166.559 37.1767C167.353 37.1767 168.106 37.0252 168.818 36.7223C169.543 36.4194 170.132 35.9789 170.584 35.4006C171.05 34.8085 171.282 34.0788 171.282 33.2114C171.282 32.2338 170.961 31.3871 170.317 30.6711C169.687 29.9414 168.866 29.2736 167.853 28.6678C166.839 28.062 165.765 27.4631 164.628 26.871C163.506 26.2652 162.438 25.6112 161.424 24.9091C160.425 24.1931 159.603 23.367 158.96 22.4307C158.316 21.4945 157.995 20.3861 157.995 19.1057C157.995 17.7013 158.33 16.4897 159.001 15.4708C159.686 14.4519 160.596 13.6671 161.732 13.1164C162.869 12.5519 164.122 12.2697 165.491 12.2697C166.367 12.2697 167.175 12.4005 167.914 12.6621C168.654 12.9099 169.311 13.1577 169.886 13.4055C170.475 13.6534 170.967 13.7773 171.364 13.7773C171.734 13.7773 172.001 13.6121 172.165 13.2816C172.343 12.9512 172.473 12.6139 172.556 12.2697H173.5V21.2329H172.515C172.378 19.8285 172.008 18.5756 171.406 17.4741C170.803 16.3589 170.002 15.4777 169.003 14.8306C168.003 14.1835 166.853 13.8599 165.552 13.8599C164.484 13.8599 163.519 14.1972 162.657 14.8719C161.794 15.5328 161.363 16.4208 161.363 17.5361C161.363 18.4448 161.691 19.2434 162.349 19.9318C163.006 20.6064 163.855 21.2398 164.895 21.8318C165.936 22.4101 167.031 22.9952 168.181 23.5873C169.345 24.1656 170.447 24.8127 171.488 25.5286C172.528 26.2446 173.377 27.0845 174.034 28.0482C174.691 28.9983 175.02 30.1273 175.02 31.4353Z" fill="white"/>
<path d="M201.512 19.3122H200.464C200.314 17.7564 199.848 16.586 199.068 15.8012C198.287 15.0027 197.103 14.6034 195.515 14.6034H192.619V33.6245C192.619 34.602 192.701 35.3455 192.865 35.8549C193.03 36.3644 193.365 36.7155 193.872 36.9082C194.378 37.0872 195.152 37.1767 196.192 37.1767V38.1474H184.733V37.1767C185.759 37.1767 186.526 37.0803 187.033 36.8876C187.539 36.6948 187.875 36.3437 188.039 35.8343C188.203 35.3249 188.286 34.5882 188.286 33.6245V14.6034H185.636C184.007 14.6034 182.782 14.9407 181.96 15.6154C181.139 16.29 180.659 17.5223 180.522 19.3122H179.434L179.68 12.8273H201.265L201.512 19.3122Z" fill="white"/>
<path d="M127.089 61.9899C127.089 63.3667 126.774 64.5095 126.145 65.4182C125.528 66.3132 124.707 67.0153 123.68 67.5248C122.667 68.0342 121.551 68.3922 120.333 68.5987C119.128 68.8052 117.943 68.9085 116.78 68.9085H104.252V67.9378C105.279 67.9378 106.045 67.8346 106.552 67.628C107.072 67.4215 107.415 67.0566 107.579 66.5335C107.743 65.9965 107.825 65.2392 107.825 64.2617V48.2352C107.825 47.2439 107.743 46.4798 107.579 45.9428C107.428 45.4058 107.1 45.0341 106.593 44.8276C106.086 44.621 105.306 44.5178 104.252 44.5178V43.5884H116.163C117.82 43.5884 119.395 43.8018 120.887 44.2286C122.379 44.6417 123.591 45.3232 124.522 46.2732C125.467 47.2233 125.939 48.49 125.939 50.0733C125.939 51.4502 125.528 52.6274 124.707 53.6049C123.899 54.5825 122.633 55.3122 120.908 55.7941C122.852 56.1658 124.365 56.8543 125.446 57.8594C126.542 58.8507 127.089 60.2275 127.089 61.9899ZM121.236 50.1146C121.236 48.9305 120.949 47.9805 120.374 47.2646C119.799 46.5348 119.025 46.0048 118.053 45.6743C117.081 45.3439 116.006 45.1786 114.829 45.1786C113.856 45.1786 112.966 45.275 112.159 45.4678V54.8441C112.583 54.9267 113.028 54.9818 113.494 55.0093C113.973 55.0231 114.445 55.0299 114.911 55.0299C116.088 55.0299 117.149 54.8785 118.094 54.5756C119.052 54.2589 119.812 53.7426 120.374 53.0266C120.949 52.2969 121.236 51.3262 121.236 50.1146ZM122.037 62.2377C122.037 60.8333 121.688 59.725 120.99 58.9126C120.305 58.0865 119.402 57.4945 118.279 57.1365C117.17 56.7648 115.992 56.5789 114.746 56.5789C114.308 56.5789 113.863 56.5858 113.411 56.5995C112.973 56.6133 112.556 56.6477 112.159 56.7028V66.203C112.638 66.6161 113.165 66.9052 113.74 67.0704C114.329 67.2219 114.986 67.2976 115.712 67.2976C116.711 67.2976 117.697 67.1461 118.669 66.8432C119.641 66.5266 120.442 66.0034 121.072 65.2736C121.715 64.5301 122.037 63.5182 122.037 62.2377Z" fill="url(#paint1_linear_1_5)"/>
<path d="M157.093 68.9085H149.288L140.868 57.2191C140.512 57.2604 140.129 57.2811 139.718 57.2811C139.54 57.2811 139.362 57.2742 139.184 57.2604C139.02 57.2467 138.862 57.2398 138.712 57.2398V64.3443C138.712 65.2943 138.801 66.0309 138.979 66.5541C139.157 67.0773 139.499 67.4422 140.006 67.6487C140.526 67.8414 141.306 67.9378 142.347 67.9378V68.9085H130.887V67.9378C131.941 67.9378 132.715 67.8414 133.208 67.6487C133.714 67.4422 134.043 67.0773 134.194 66.5541C134.344 66.0171 134.419 65.2599 134.419 64.2823V48.0494C134.419 47.0856 134.344 46.349 134.194 45.8395C134.043 45.3301 133.714 44.9859 133.208 44.8069C132.715 44.6141 131.941 44.5178 130.887 44.5178V43.5884H140.683C141.902 43.5884 143.127 43.6572 144.36 43.7949C145.605 43.9326 146.749 44.2217 147.789 44.6623C148.83 45.0892 149.665 45.7363 150.295 46.6037C150.938 47.4711 151.26 48.6276 151.26 50.0733C151.26 52.0422 150.706 53.5498 149.597 54.5962C148.488 55.6289 147.118 56.3173 145.489 56.6615L150.726 63.704C151.739 65.0258 152.691 66.0378 153.581 66.74C154.471 67.4284 155.641 67.8277 157.093 67.9378V68.9085ZM146.454 50.4038C146.454 48.9305 146.037 47.7052 145.202 46.7276C144.38 45.75 143.079 45.2613 141.299 45.2613C140.834 45.2613 140.382 45.2888 139.944 45.3439C139.52 45.3989 139.109 45.454 138.712 45.5091V55.6289C139.054 55.6839 139.52 55.7115 140.108 55.7115C141.163 55.7115 142.169 55.5325 143.127 55.1745C144.099 54.8165 144.894 54.252 145.51 53.481C146.139 52.6962 146.454 51.6705 146.454 50.4038Z" fill="url(#paint2_linear_1_5)"/>
<path d="M184.632 56.1658C184.632 57.9557 184.337 59.6561 183.748 61.267C183.16 62.8642 182.304 64.2823 181.181 65.5215C180.072 66.7606 178.737 67.7382 177.177 68.4541C175.629 69.1701 173.884 69.5281 171.939 69.5281C169.352 69.5281 167.106 68.9223 165.203 67.7106C163.314 66.4853 161.849 64.8606 160.808 62.8366C159.781 60.8127 159.268 58.596 159.268 56.1865C159.268 53.7495 159.816 51.5397 160.911 49.557C162.006 47.5606 163.519 45.9772 165.45 44.8069C167.394 43.6228 169.619 43.0308 172.124 43.0308C174.027 43.0308 175.746 43.3819 177.279 44.0841C178.826 44.7725 180.148 45.7294 181.243 46.9548C182.338 48.1664 183.173 49.5639 183.748 51.1473C184.337 52.7169 184.632 54.3897 184.632 56.1658ZM179.579 56.3724C179.579 55.0231 179.47 53.6531 179.251 52.2625C179.032 50.8719 178.642 49.5983 178.08 48.4418C177.532 47.2715 176.752 46.3283 175.739 45.6124C174.726 44.8964 173.432 44.5384 171.857 44.5384C170.365 44.5384 169.133 44.8964 168.161 45.6124C167.189 46.3283 166.422 47.2646 165.86 48.4211C165.313 49.5777 164.923 50.8306 164.69 52.1799C164.457 53.5154 164.341 54.8165 164.341 56.0832C164.341 57.2948 164.457 58.5891 164.69 59.9659C164.923 61.329 165.32 62.6163 165.881 63.828C166.442 65.0396 167.209 66.0309 168.181 66.8019C169.167 67.573 170.399 67.9585 171.878 67.9585C173.425 67.9585 174.698 67.6074 175.698 66.9052C176.697 66.1892 177.478 65.2599 178.039 64.1171C178.614 62.9605 179.011 61.7076 179.23 60.3583C179.463 58.9952 179.579 57.6666 179.579 56.3724Z" fill="url(#paint3_linear_1_5)"/>
<path d="M216.298 68.9085H203.668V67.9378C204.175 67.9378 204.64 67.8552 205.065 67.69C205.489 67.511 205.701 67.1875 205.701 66.7193C205.701 66.4715 205.564 66.1617 205.29 65.79C205.03 65.4044 204.791 65.1084 204.572 64.9019L197.281 57.4463L196.316 58.3757V64.2617C196.316 65.2392 196.391 65.9965 196.542 66.5335C196.706 67.0566 197.028 67.4215 197.507 67.628C198 67.8346 198.739 67.9378 199.725 67.9378V68.9085H188.45V67.9378C189.504 67.9378 190.278 67.8346 190.771 67.628C191.277 67.4215 191.606 67.0566 191.756 66.5335C191.907 65.9965 191.982 65.2392 191.982 64.2617V48.2352C191.982 47.2577 191.907 46.5004 191.756 45.9635C191.606 45.4265 191.277 45.0547 190.771 44.8482C190.278 44.6279 189.504 44.5178 188.45 44.5178V43.5884H199.684V44.5178C198.725 44.5178 198.007 44.6279 197.527 44.8482C197.048 45.0547 196.726 45.4265 196.562 45.9635C196.398 46.5004 196.316 47.2577 196.316 48.2352V55.5256C197.452 54.4517 198.561 53.3984 199.643 52.3658C200.738 51.3331 201.731 50.3693 202.621 49.4744C203.511 48.5794 204.222 47.7946 204.756 47.12C205.29 46.4453 205.557 45.9359 205.557 45.5917C205.557 45.096 205.338 44.7931 204.9 44.683C204.476 44.5728 203.914 44.5178 203.216 44.5178V43.5884H212.93V44.5178C212.095 44.5178 211.322 44.683 210.61 45.0134C209.911 45.3301 209.151 45.8602 208.33 46.6037C207.508 47.3334 206.488 48.3041 205.27 49.5157L200.259 54.6375L209.726 64.1997C210.822 65.3149 211.876 66.1961 212.889 66.8432C213.902 67.4766 215.039 67.8414 216.298 67.9378V68.9085Z" fill="url(#paint4_linear_1_5)"/>
<path d="M240.305 62.2377L237.964 68.9085H218.433V67.9378C219.473 67.9378 220.247 67.8346 220.753 67.628C221.26 67.4215 221.595 67.0429 221.76 66.4921C221.924 65.9414 222.006 65.1497 222.006 64.1171V48.2972C222.006 47.237 221.931 46.4385 221.78 45.9015C221.63 45.3645 221.301 44.9997 220.794 44.8069C220.302 44.6141 219.514 44.5178 218.433 44.5178V43.5884H238.046L238.333 49.5364H237.409C237.122 48.4486 236.841 47.595 236.567 46.9754C236.293 46.3421 235.855 45.8946 235.253 45.633C234.664 45.3576 233.747 45.22 232.501 45.22H226.298V54.9473H230.735C231.761 54.9473 232.535 54.8303 233.055 54.5962C233.589 54.3484 233.966 53.9422 234.185 53.3777C234.418 52.7995 234.602 52.0215 234.739 51.044H235.684V60.4616H234.739C234.602 59.4703 234.424 58.6992 234.205 58.1485C233.986 57.584 233.617 57.1916 233.096 56.9713C232.576 56.7372 231.789 56.6202 230.735 56.6202H226.298V64.3649C226.298 65.3425 226.394 66.0791 226.586 66.5748C226.778 67.0566 227.387 67.2976 228.414 67.2976H231.905C233.37 67.2976 234.513 67.1255 235.335 66.7813C236.156 66.4371 236.848 65.8932 237.409 65.1497C237.97 64.4062 238.587 63.4356 239.258 62.2377H240.305Z" fill="url(#paint5_linear_1_5)"/>
<path d="M270 68.9085H262.196L253.776 57.2191C253.42 57.2604 253.036 57.2811 252.626 57.2811C252.448 57.2811 252.27 57.2742 252.092 57.2604C251.927 57.2467 251.77 57.2398 251.619 57.2398V64.3443C251.619 65.2943 251.708 66.0309 251.886 66.5541C252.064 67.0773 252.407 67.4422 252.913 67.6487C253.433 67.8414 254.214 67.9378 255.254 67.9378V68.9085H243.795V67.9378C244.849 67.9378 245.622 67.8414 246.115 67.6487C246.622 67.4422 246.951 67.0773 247.101 66.5541C247.252 66.0171 247.327 65.2599 247.327 64.2823V48.0494C247.327 47.0856 247.252 46.349 247.101 45.8395C246.951 45.3301 246.622 44.9859 246.115 44.8069C245.622 44.6141 244.849 44.5178 243.795 44.5178V43.5884H253.591C254.809 43.5884 256.035 43.6572 257.267 43.7949C258.513 43.9326 259.656 44.2217 260.697 44.6623C261.737 45.0892 262.573 45.7363 263.202 46.6037C263.846 47.4711 264.168 48.6276 264.168 50.0733C264.168 52.0422 263.613 53.5498 262.504 54.5962C261.395 55.6289 260.026 56.3173 258.397 56.6615L263.634 63.704C264.647 65.0258 265.598 66.0378 266.488 66.74C267.378 67.4284 268.549 67.8277 270 67.9378V68.9085ZM259.362 50.4038C259.362 48.9305 258.944 47.7052 258.109 46.7276C257.288 45.75 255.987 45.2613 254.207 45.2613C253.742 45.2613 253.29 45.2888 252.852 45.3439C252.427 45.3989 252.016 45.454 251.619 45.5091V55.6289C251.962 55.6839 252.427 55.7115 253.016 55.7115C254.07 55.7115 255.076 55.5325 256.035 55.1745C257.007 54.8165 257.801 54.252 258.417 53.481C259.047 52.6962 259.362 51.6705 259.362 50.4038Z" fill="url(#paint6_linear_1_5)"/>
<rect y="80.045" width="270" height="0.58427" fill="white"/>
<path d="M20.4988 103.813V102.708H21.9152V94.0034H20.4988V92.8989H29.9163V96.2498H28.8444V94.0034H23.4848V97.71H26.5666V96.4183H27.5811V100.218H26.5666V98.8332H23.4848V102.708H29.1507V100.368H30.2226V103.813H20.4988Z" fill="white"/>
<path d="M37.7261 103.813V102.764H38.9703L36.7308 100.424H37.2285L35.0272 102.764H36.2905V103.813H32.424V102.764H33.5725L36.4245 99.8628L36.5202 100.275L33.7256 97.4292H32.6154V96.3808H36.5202V97.4292H35.3143L37.4007 99.582L36.8648 99.6194L38.9129 97.4292H37.707V96.3808H41.4778V97.4292H40.3676L37.707 100.162L37.6113 99.7692L40.5591 102.764H41.7458V103.813H37.7261Z" fill="white"/>
<path d="M47.8679 104C47.0002 104 46.2537 103.832 45.6284 103.495C45.0031 103.145 44.5246 102.677 44.1928 102.091C43.861 101.491 43.6951 100.818 43.6951 100.069C43.6951 99.3324 43.8482 98.6772 44.1545 98.1031C44.4608 97.5165 44.901 97.0548 45.4752 96.7178C46.0495 96.3684 46.7386 96.1936 47.5425 96.1936C47.9764 96.1936 48.3783 96.2623 48.7484 96.3996C49.1185 96.5368 49.4247 96.7303 49.6672 96.9799C49.9224 97.2295 50.0755 97.5353 50.1266 97.8972L49.9352 97.9346V96.3808H50.9688V98.9455H50.0117C49.731 97.8847 48.959 97.3543 47.6956 97.3543C46.8279 97.3543 46.1707 97.6101 45.7241 98.1218C45.2902 98.621 45.0733 99.2825 45.0733 100.106C45.0733 100.905 45.3221 101.566 45.8198 102.091C46.3175 102.602 47.0257 102.858 47.9445 102.858C48.4039 102.858 48.8696 102.758 49.3418 102.559C49.8139 102.359 50.1968 102.109 50.4903 101.81L51.1602 102.764C50.7646 103.151 50.2606 103.457 49.6481 103.682C49.0355 103.894 48.4422 104 47.8679 104Z" fill="white"/>
<path d="M58.0686 104C57.1115 104 56.3012 103.832 55.6376 103.495C54.9868 103.145 54.4955 102.677 54.1638 102.091C53.8447 101.491 53.6852 100.83 53.6852 100.106C53.6852 99.3698 53.8447 98.7084 54.1638 98.1218C54.4955 97.5353 54.9613 97.0672 55.5611 96.7178C56.1608 96.3684 56.8691 96.1936 57.6858 96.1936C58.5025 96.1936 59.2043 96.3684 59.7913 96.7178C60.3783 97.0672 60.825 97.5353 61.1312 98.1218C61.4502 98.6959 61.6097 99.3574 61.6097 100.106V100.649H54.5275V99.5633H60.2699C60.2699 99.1514 60.1614 98.7708 59.9445 98.4213C59.7403 98.0719 59.4404 97.7911 59.0448 97.5789C58.662 97.3543 58.209 97.242 57.6858 97.242C57.1371 97.242 56.6649 97.3605 56.2693 97.5977C55.8737 97.8223 55.5675 98.1281 55.3505 98.5149C55.1464 98.8894 55.0443 99.295 55.0443 99.7318V100.106C55.0443 100.942 55.2995 101.61 55.8099 102.109C56.3331 102.608 57.0988 102.858 58.1069 102.858C58.6428 102.858 59.1597 102.764 59.6573 102.577C60.1678 102.39 60.5889 102.14 60.9207 101.828L61.5332 102.821C61.1121 103.183 60.5953 103.47 59.9827 103.682C59.3702 103.894 58.7322 104 58.0686 104Z" fill="white"/>
<path d="M63.7955 103.813V102.764H65.1162V93.9472H63.6997V92.8989H66.5327V102.764H67.796V103.813H63.7955Z" fill="white"/>
<path d="M69.5797 103.813V102.764H70.9005V93.9472H69.484V92.8989H72.3169V102.764H73.5803V103.813H69.5797Z" fill="white"/>
<path d="M80.2068 104C79.2497 104 78.4394 103.832 77.7758 103.495C77.125 103.145 76.6337 102.677 76.3019 102.091C75.9829 101.491 75.8234 100.83 75.8234 100.106C75.8234 99.3698 75.9829 98.7084 76.3019 98.1218C76.6337 97.5353 77.0995 97.0672 77.6992 96.7178C78.299 96.3684 79.0072 96.1936 79.8239 96.1936C80.6406 96.1936 81.3425 96.3684 81.9295 96.7178C82.5165 97.0672 82.9631 97.5353 83.2694 98.1218C83.5884 98.6959 83.7479 99.3574 83.7479 100.106V100.649H76.6656V99.5633H82.408C82.408 99.1514 82.2995 98.7708 82.0826 98.4213C81.8784 98.0719 81.5786 97.7911 81.183 97.5789C80.8001 97.3543 80.3471 97.242 79.8239 97.242C79.2752 97.242 78.8031 97.3605 78.4075 97.5977C78.0119 97.8223 77.7056 98.1281 77.4887 98.5149C77.2845 98.8894 77.1824 99.295 77.1824 99.7318V100.106C77.1824 100.942 77.4376 101.61 77.9481 102.109C78.4713 102.608 79.2369 102.858 80.245 102.858C80.781 102.858 81.2978 102.764 81.7955 102.577C82.3059 102.39 82.727 102.14 83.0588 101.828L83.6713 102.821C83.2502 103.183 82.7334 103.47 82.1209 103.682C81.5084 103.894 80.8703 104 80.2068 104Z" fill="white"/>
<path d="M86.0676 103.813V102.764H87.3884V97.4292H85.9719V96.3808H88.7283V97.4666L88.4794 97.5415C88.9643 97.0922 89.4875 96.7552 90.049 96.5306C90.6105 96.306 91.1656 96.1936 91.7143 96.1936C92.5438 96.1936 93.1754 96.3996 93.6093 96.8114C94.0559 97.2232 94.2792 97.8597 94.2792 98.7209V102.764H95.5043V103.813H91.542V102.764H92.8628V98.983C92.8628 98.4213 92.7288 98.0157 92.4608 97.7661C92.2056 97.5041 91.7909 97.373 91.2166 97.373C90.7955 97.373 90.368 97.4479 89.9342 97.5977C89.513 97.7474 89.0537 98.0282 88.556 98.4401L88.8048 97.9159V102.764H90.0299V103.813H86.0676Z" fill="white"/>
<path d="M101.902 104C101.034 104 100.288 103.832 99.6623 103.495C99.037 103.145 98.5585 102.677 98.2267 102.091C97.8949 101.491 97.729 100.818 97.729 100.069C97.729 99.3324 97.8821 98.6772 98.1884 98.1031C98.4947 97.5165 98.9349 97.0548 99.5092 96.7178C100.083 96.3684 100.772 96.1936 101.576 96.1936C102.01 96.1936 102.412 96.2623 102.782 96.3996C103.152 96.5368 103.459 96.7303 103.701 96.9799C103.956 97.2295 104.109 97.5353 104.161 97.8972L103.969 97.9346V96.3808H105.003V98.9455H104.046C103.765 97.8847 102.993 97.3543 101.73 97.3543C100.862 97.3543 100.205 97.6101 99.758 98.1218C99.3241 98.621 99.1072 99.2825 99.1072 100.106C99.1072 100.905 99.356 101.566 99.8537 102.091C100.351 102.602 101.06 102.858 101.978 102.858C102.438 102.858 102.904 102.758 103.376 102.559C103.848 102.359 104.231 102.109 104.524 101.81L105.194 102.764C104.799 103.151 104.295 103.457 103.682 103.682C103.069 103.894 102.476 104 101.902 104Z" fill="white"/>
<path d="M112.103 104C111.145 104 110.335 103.832 109.672 103.495C109.021 103.145 108.529 102.677 108.198 102.091C107.879 101.491 107.719 100.83 107.719 100.106C107.719 99.3698 107.879 98.7084 108.198 98.1218C108.529 97.5353 108.995 97.0672 109.595 96.7178C110.195 96.3684 110.903 96.1936 111.72 96.1936C112.536 96.1936 113.238 96.3684 113.825 96.7178C114.412 97.0672 114.859 97.5353 115.165 98.1218C115.484 98.6959 115.644 99.3574 115.644 100.106V100.649H108.561V99.5633H114.304C114.304 99.1514 114.195 98.7708 113.978 98.4213C113.774 98.0719 113.474 97.7911 113.079 97.5789C112.696 97.3543 112.243 97.242 111.72 97.242C111.171 97.242 110.699 97.3605 110.303 97.5977C109.908 97.8223 109.601 98.1281 109.384 98.5149C109.18 98.8894 109.078 99.295 109.078 99.7318V100.106C109.078 100.942 109.333 101.61 109.844 102.109C110.367 102.608 111.133 102.858 112.141 102.858C112.677 102.858 113.194 102.764 113.691 102.577C114.202 102.39 114.623 102.14 114.955 101.828L115.567 102.821C115.146 103.183 114.629 103.47 114.017 103.682C113.404 103.894 112.766 104 112.103 104Z" fill="white"/>
<path d="M124.57 103.813V102.764H125.891V97.4292H124.474V96.3808H127.307V102.764H128.532V103.813H124.57ZM126.599 94.9955C126.28 94.9955 126.031 94.9082 125.853 94.7335C125.687 94.5462 125.604 94.3216 125.604 94.0595C125.604 93.785 125.687 93.5603 125.853 93.3856C126.031 93.1984 126.28 93.1048 126.599 93.1048C126.905 93.1048 127.141 93.1984 127.307 93.3856C127.486 93.5603 127.575 93.785 127.575 94.0595C127.575 94.3216 127.486 94.5462 127.307 94.7335C127.141 94.9082 126.905 94.9955 126.599 94.9955Z" fill="white"/>
<path d="M130.597 103.813V102.764H131.918V97.4292H130.502V96.3808H133.258V97.4666L133.009 97.5415C133.494 97.0922 134.017 96.7552 134.579 96.5306C135.14 96.306 135.695 96.1936 136.244 96.1936C137.074 96.1936 137.705 96.3996 138.139 96.8114C138.586 97.2232 138.809 97.8597 138.809 98.7209V102.764H140.034V103.813H136.072V102.764H137.393V98.983C137.393 98.4213 137.259 98.0157 136.991 97.7661C136.735 97.5041 136.321 97.373 135.746 97.373C135.325 97.373 134.898 97.4479 134.464 97.5977C134.043 97.7474 133.583 98.0282 133.086 98.4401L133.335 97.9159V102.764H134.56V103.813H130.597Z" fill="white"/>
<path d="M148.827 103.813V102.708H150.244V94.0034H148.827V92.8989H154.742C155.993 92.8989 156.93 93.1672 157.556 93.7038C158.181 94.228 158.494 95.008 158.494 96.0439C158.494 97.0922 158.175 97.8785 157.537 98.4026C156.911 98.9268 156.018 99.1889 154.857 99.1889H154.531L155.584 98.6647L158.149 102.708H159.642V103.813H157.001L154.072 99.1889H152.713V98.0657H154.455C155.335 98.0657 155.954 97.8847 156.312 97.5228C156.682 97.1608 156.867 96.6679 156.867 96.0439C156.867 95.4199 156.688 94.9269 156.331 94.565C155.986 94.1906 155.361 94.0034 154.455 94.0034H151.813V102.708H153.23V103.813H148.827Z" fill="white"/>
<path d="M166.249 104C165.292 104 164.481 103.832 163.818 103.495C163.167 103.145 162.676 102.677 162.344 102.091C162.025 101.491 161.865 100.83 161.865 100.106C161.865 99.3698 162.025 98.7084 162.344 98.1218C162.676 97.5353 163.141 97.0672 163.741 96.7178C164.341 96.3684 165.049 96.1936 165.866 96.1936C166.682 96.1936 167.384 96.3684 167.971 96.7178C168.558 97.0672 169.005 97.5353 169.311 98.1218C169.63 98.6959 169.79 99.3574 169.79 100.106V100.649H162.707V99.5633H168.45C168.45 99.1514 168.341 98.7708 168.124 98.4213C167.92 98.0719 167.62 97.7911 167.225 97.5789C166.842 97.3543 166.389 97.242 165.866 97.242C165.317 97.242 164.845 97.3605 164.449 97.5977C164.054 97.8223 163.747 98.1281 163.531 98.5149C163.326 98.8894 163.224 99.295 163.224 99.7318V100.106C163.224 100.942 163.479 101.61 163.99 102.109C164.513 102.608 165.279 102.858 166.287 102.858C166.823 102.858 167.34 102.764 167.837 102.577C168.348 102.39 168.769 102.14 169.101 101.828L169.713 102.821C169.292 103.183 168.775 103.47 168.163 103.682C167.55 103.894 166.912 104 166.249 104Z" fill="white"/>
<path d="M175.251 104C174.358 104 173.669 103.8 173.184 103.401C172.711 103.002 172.475 102.465 172.475 101.791C172.475 101.067 172.737 100.512 173.26 100.125C173.796 99.738 174.543 99.5446 175.5 99.5446C175.895 99.5446 176.31 99.5758 176.744 99.6382C177.178 99.7006 177.605 99.7879 178.026 99.9002L177.72 100.087V99.0017C177.72 98.465 177.554 98.0594 177.222 97.7849C176.891 97.5103 176.38 97.373 175.691 97.373C175.27 97.373 174.843 97.4292 174.409 97.5415C173.988 97.6413 173.586 97.7973 173.203 98.0095L172.839 96.9237C173.298 96.6741 173.796 96.4932 174.332 96.3808C174.868 96.256 175.359 96.1936 175.806 96.1936C176.903 96.1936 177.733 96.437 178.294 96.9237C178.856 97.398 179.137 98.1093 179.137 99.0578V102.764H180.362V103.813H177.816V102.633L178.026 102.783C177.669 103.183 177.235 103.488 176.725 103.7C176.227 103.9 175.736 104 175.251 104ZM175.519 102.933C175.953 102.933 176.38 102.852 176.801 102.69C177.222 102.515 177.58 102.278 177.873 101.978L177.72 102.427V100.462L178.026 100.855C177.618 100.743 177.222 100.668 176.84 100.63C176.457 100.58 176.093 100.555 175.749 100.555C175.149 100.555 174.683 100.655 174.351 100.855C174.019 101.055 173.854 101.36 173.854 101.772C173.854 102.147 173.994 102.434 174.275 102.633C174.568 102.833 174.983 102.933 175.519 102.933Z" fill="white"/>
<path d="M182.115 103.813V102.764H183.436V93.9472H182.019V92.8989H184.852V102.764H186.116V103.813H182.115Z" fill="white"/>
<path d="M194.927 103.813V102.708H196.344V94.0034H194.927V92.8989H204.345V96.2498H203.273V94.0034H197.913V97.71H200.995V96.4183H202.01V100.218H200.995V98.8332H197.913V102.708H203.579V100.368H204.651V103.813H194.927Z" fill="white"/>
<path d="M211.424 104C210.595 104 209.925 103.85 209.414 103.551C208.917 103.251 208.572 102.808 208.381 102.222L208.744 102.091V103.813H207.711V101.211H208.649C208.7 101.623 208.846 101.972 209.089 102.259C209.344 102.546 209.657 102.758 210.027 102.895C210.397 103.033 210.786 103.101 211.194 103.101C211.794 103.101 212.241 103.002 212.534 102.802C212.828 102.59 212.975 102.309 212.975 101.959C212.975 101.71 212.885 101.498 212.707 101.323C212.541 101.148 212.183 100.999 211.635 100.874L209.797 100.424C209.146 100.262 208.636 100.019 208.266 99.6943C207.908 99.3698 207.73 98.9393 207.73 98.4026C207.73 97.9533 207.845 97.5602 208.074 97.2232C208.317 96.8863 208.655 96.6304 209.089 96.4557C209.536 96.2685 210.052 96.1749 210.639 96.1749C211.303 96.1749 211.858 96.306 212.305 96.568C212.751 96.8301 213.051 97.2232 213.204 97.7474L212.86 97.7849V96.3808H213.913V98.777H212.955C212.943 98.3652 212.834 98.0345 212.63 97.7849C212.426 97.5353 212.164 97.3605 211.845 97.2607C211.539 97.1484 211.22 97.0922 210.888 97.0922C210.288 97.0922 209.842 97.1983 209.548 97.4105C209.255 97.6101 209.108 97.8847 209.108 98.2341C209.108 98.4962 209.204 98.7084 209.395 98.8706C209.599 99.0204 209.937 99.1514 210.41 99.2638L212.247 99.6943C212.949 99.8566 213.479 100.1 213.836 100.424C214.193 100.749 214.372 101.211 214.372 101.81C214.372 102.259 214.251 102.652 214.008 102.989C213.766 103.314 213.421 103.563 212.975 103.738C212.541 103.913 212.024 104 211.424 104Z" fill="white"/>
<path d="M220.409 104C219.643 104 219.018 103.8 218.533 103.401C218.061 102.989 217.825 102.334 217.825 101.435V97.4292H216.408V96.3808H217.825V93.891L219.222 93.629V96.3808H221.366V97.4292H219.222V101.229C219.222 101.841 219.356 102.259 219.624 102.484C219.892 102.708 220.249 102.821 220.696 102.821C220.862 102.821 221.028 102.802 221.194 102.764C221.359 102.727 221.506 102.683 221.634 102.633L221.844 103.682C221.653 103.769 221.43 103.844 221.174 103.906C220.932 103.969 220.677 104 220.409 104Z" fill="white"/>
<path d="M226.817 104C225.924 104 225.235 103.8 224.75 103.401C224.278 103.002 224.042 102.465 224.042 101.791C224.042 101.067 224.303 100.512 224.827 100.125C225.363 99.738 226.109 99.5446 227.066 99.5446C227.462 99.5446 227.877 99.5758 228.31 99.6382C228.744 99.7006 229.172 99.7879 229.593 99.9002L229.287 100.087V99.0017C229.287 98.465 229.121 98.0594 228.789 97.7849C228.457 97.5103 227.947 97.373 227.258 97.373C226.836 97.373 226.409 97.4292 225.975 97.5415C225.554 97.6413 225.152 97.7973 224.769 98.0095L224.406 96.9237C224.865 96.6741 225.363 96.4932 225.899 96.3808C226.435 96.256 226.926 96.1936 227.372 96.1936C228.47 96.1936 229.299 96.437 229.861 96.9237C230.422 97.398 230.703 98.1093 230.703 99.0578V102.764H231.928V103.813H229.382V102.633L229.593 102.783C229.236 103.183 228.802 103.488 228.291 103.7C227.794 103.9 227.302 104 226.817 104ZM227.085 102.933C227.519 102.933 227.947 102.852 228.368 102.69C228.789 102.515 229.146 102.278 229.44 101.978L229.287 102.427V100.462L229.593 100.855C229.184 100.743 228.789 100.668 228.406 100.63C228.023 100.58 227.66 100.555 227.315 100.555C226.715 100.555 226.249 100.655 225.918 100.855C225.586 101.055 225.42 101.36 225.42 101.772C225.42 102.147 225.56 102.434 225.841 102.633C226.135 102.833 226.549 102.933 227.085 102.933Z" fill="white"/>
<path d="M237.529 104C236.763 104 236.138 103.8 235.653 103.401C235.181 102.989 234.945 102.334 234.945 101.435V97.4292H233.528V96.3808H234.945V93.891L236.342 93.629V96.3808H238.486V97.4292H236.342V101.229C236.342 101.841 236.476 102.259 236.744 102.484C237.012 102.708 237.37 102.821 237.816 102.821C237.982 102.821 238.148 102.802 238.314 102.764C238.48 102.727 238.626 102.683 238.754 102.633L238.965 103.682C238.773 103.769 238.55 103.844 238.295 103.906C238.052 103.969 237.797 104 237.529 104Z" fill="white"/>
<path d="M245.374 104C244.417 104 243.607 103.832 242.943 103.495C242.292 103.145 241.801 102.677 241.469 102.091C241.15 101.491 240.991 100.83 240.991 100.106C240.991 99.3698 241.15 98.7084 241.469 98.1218C241.801 97.5353 242.267 97.0672 242.867 96.7178C243.466 96.3684 244.175 96.1936 244.991 96.1936C245.808 96.1936 246.51 96.3684 247.097 96.7178C247.684 97.0672 248.13 97.5353 248.437 98.1218C248.756 98.6959 248.915 99.3574 248.915 100.106V100.649H241.833V99.5633H247.575C247.575 99.1514 247.467 98.7708 247.25 98.4213C247.046 98.0719 246.746 97.7911 246.35 97.5789C245.968 97.3543 245.514 97.242 244.991 97.242C244.443 97.242 243.97 97.3605 243.575 97.5977C243.179 97.8223 242.873 98.1281 242.656 98.5149C242.452 98.8894 242.35 99.295 242.35 99.7318V100.106C242.35 100.942 242.605 101.61 243.115 102.109C243.639 102.608 244.404 102.858 245.412 102.858C245.948 102.858 246.465 102.764 246.963 102.577C247.473 102.39 247.894 102.14 248.226 101.828L248.839 102.821C248.418 103.183 247.901 103.47 247.288 103.682C246.676 103.894 246.038 104 245.374 104Z" fill="white"/>
</g>
<defs>
<linearGradient id="paint0_linear_1_5" x1="72.6392" y1="3.80957" x2="35.6256" y2="70.6854" gradientUnits="userSpaceOnUse">
<stop stop-color="#F0BB2B"/>
<stop offset="1" stop-color="#C67E15"/>
</linearGradient>
<linearGradient id="paint1_linear_1_5" x1="235.438" y1="15.3551" x2="225.447" y2="84.6707" gradientUnits="userSpaceOnUse">
<stop stop-color="#F0BB2B"/>
<stop offset="1" stop-color="#C67E15"/>
</linearGradient>
<linearGradient id="paint2_linear_1_5" x1="235.438" y1="15.3551" x2="225.447" y2="84.6707" gradientUnits="userSpaceOnUse">
<stop stop-color="#F0BB2B"/>
<stop offset="1" stop-color="#C67E15"/>
</linearGradient>
<linearGradient id="paint3_linear_1_5" x1="235.438" y1="15.3551" x2="225.447" y2="84.6707" gradientUnits="userSpaceOnUse">
<stop stop-color="#F0BB2B"/>
<stop offset="1" stop-color="#C67E15"/>
</linearGradient>
<linearGradient id="paint4_linear_1_5" x1="235.438" y1="15.3551" x2="225.447" y2="84.6707" gradientUnits="userSpaceOnUse">
<stop stop-color="#F0BB2B"/>
<stop offset="1" stop-color="#C67E15"/>
</linearGradient>
<linearGradient id="paint5_linear_1_5" x1="235.438" y1="15.3551" x2="225.447" y2="84.6707" gradientUnits="userSpaceOnUse">
<stop stop-color="#F0BB2B"/>
<stop offset="1" stop-color="#C67E15"/>
</linearGradient>
<linearGradient id="paint6_linear_1_5" x1="235.438" y1="15.3551" x2="225.447" y2="84.6707" gradientUnits="userSpaceOnUse">
<stop stop-color="#F0BB2B"/>
<stop offset="1" stop-color="#C67E15"/>
</linearGradient>
<clipPath id="clip0_1_5">
<rect width="270" height="104" fill="white"/>
</clipPath>
</defs>
</svg>
